<svg xmlns="http://www.w3.org/2000/svg" fill="none" viewBox="0 0 128 128">
  <rect width="128" height="128" rx="32" fill="#2563eb"/>
  
  <!-- Classic curved S -->
  <path d="M64 32C49.6 32 38 43.6 38 58c0 4.4 3.6 8 8 8s8-3.6 8-8c0-5.5 4.5-10 10-10h12c5.5 0 10 4.5 10 10s-4.5 10-10 10H64c-14.4 0-26 11.6-26 26s11.6 26 26 26h12c14.4 0 26-11.6 26-26 0-4.4-3.6-8-8-8s-8 3.6-8 8c0 5.5-4.5 10-10 10H64c-5.5 0-10-4.5-10-10s4.5-10 10-10h12c14.4 0 26-11.6 26-26S90.4 32 76 32H64z" fill="white"/>
  
  <style>
    rect { fill: #2563eb; }
    path { fill: #ffffff; }
    @media (prefers-color-scheme: dark) {
      rect { fill: #1e40af; }
      path { fill: #ffffff; }
    }
  </style>
</svg>
